<svg version="1.1" xmlns="http://www.w3.org/2000/svg" xmlns:xlink="http://www.w3.org/1999/xlink" width="102.20432" height="149.98852" viewBox="0,0,102.20432,149.98852"><defs><linearGradient x1="89.69383" y1="106.04874" x2="89.69383" y2="152.25099" gradientUnits="userSpaceOnUse" id="color-1"><stop offset="0" stop-color="#563408"/><stop offset="1" stop-color="#e5ba5e"/></linearGradient><linearGradient x1="89.69614" y1="110.14198" x2="89.69614" y2="156.34423" gradientUnits="userSpaceOnUse" id="color-2"><stop offset="0" stop-color="#563408"/><stop offset="1" stop-color="#e5ba5e"/></linearGradient><linearGradient x1="85.84368" y1="107.73419" x2="85.84368" y2="153.93644" gradientUnits="userSpaceOnUse" id="color-3"><stop offset="0" stop-color="#563408"/><stop offset="1" stop-color="#e5ba5e"/></linearGradient><linearGradient x1="87.14277" y1="101.67284" x2="87.14277" y2="147.87509" gradientUnits="userSpaceOnUse" id="color-4"><stop offset="0" stop-color="#563408"/><stop offset="1" stop-color="#e5ba5e"/></linearGradient><linearGradient x1="93.54629" y1="103.64096" x2="93.54629" y2="149.8432" gradientUnits="userSpaceOnUse" id="color-5"><stop offset="0" stop-color="#563408"/><stop offset="1" stop-color="#e5ba5e"/></linearGradient><linearGradient x1="93.5486" y1="107.73419" x2="93.5486" y2="153.93644" gradientUnits="userSpaceOnUse" id="color-6"><stop offset="0" stop-color="#563408"/><stop offset="1" stop-color="#e5ba5e"/></linearGradient><linearGradient x1="93.5552" y1="112.79054" x2="93.5552" y2="158.99279" gradientUnits="userSpaceOnUse" id="color-7"><stop offset="0" stop-color="#563408"/><stop offset="1" stop-color="#e5ba5e"/></linearGradient><linearGradient x1="98.65574" y1="101.23317" x2="98.65574" y2="147.43542" gradientUnits="userSpaceOnUse" id="color-8"><stop offset="0" stop-color="#563408"/><stop offset="1" stop-color="#e5ba5e"/></linearGradient><linearGradient x1="98.65344" y1="105.32641" x2="98.65344" y2="151.52865" gradientUnits="userSpaceOnUse" id="color-9"><stop offset="0" stop-color="#563408"/><stop offset="1" stop-color="#e5ba5e"/></linearGradient><linearGradient x1="103.64237" y1="110.59464" x2="103.64237" y2="156.79689" gradientUnits="userSpaceOnUse" id="color-10"><stop offset="0" stop-color="#563408"/><stop offset="1" stop-color="#e5ba5e"/></linearGradient><linearGradient x1="103.6489" y1="105.53829" x2="103.6489" y2="151.74047" gradientUnits="userSpaceOnUse" id="color-11"><stop offset="0" stop-color="#563408"/><stop offset="1" stop-color="#e5ba5e"/></linearGradient><linearGradient x1="98.64684" y1="110.38276" x2="98.64684" y2="156.58501" gradientUnits="userSpaceOnUse" id="color-12"><stop offset="0" stop-color="#563408"/><stop offset="1" stop-color="#e5ba5e"/></linearGradient><linearGradient x1="103.4105" y1="101.44505" x2="103.4105" y2="147.64724" gradientUnits="userSpaceOnUse" id="color-13"><stop offset="0" stop-color="#5c3300"/><stop offset="1" stop-color="#e6bb5f"/></linearGradient><linearGradient x1="102.49778" y1="100.54982" x2="102.49778" y2="146.752" gradientUnits="userSpaceOnUse" id="color-14"><stop offset="0" stop-color="#5c3300"/><stop offset="1" stop-color="#e6bb5f"/></linearGradient><linearGradient x1="102.44982" y1="104.64306" x2="102.44982" y2="150.84524" gradientUnits="userSpaceOnUse" id="color-15"><stop offset="0" stop-color="#5c3300"/><stop offset="1" stop-color="#e6bb5f"/></linearGradient><linearGradient x1="103.05381" y1="109.47162" x2="103.05381" y2="155.67381" gradientUnits="userSpaceOnUse" id="color-16"><stop offset="0" stop-color="#5c3300"/><stop offset="1" stop-color="#e6bb5f"/></linearGradient><linearGradient x1="88.5879" y1="99.72062" x2="88.5879" y2="145.92287" gradientUnits="userSpaceOnUse" id="color-17"><stop offset="0" stop-color="#492800"/><stop offset="1" stop-color="#e6bb5f"/></linearGradient><linearGradient x1="89.6123" y1="103.35829" x2="89.6123" y2="149.56054" gradientUnits="userSpaceOnUse" id="color-18"><stop offset="0" stop-color="#492800"/><stop offset="1" stop-color="#e6bb5f"/></linearGradient><linearGradient x1="91.43404" y1="107.38952" x2="91.43404" y2="153.59176" gradientUnits="userSpaceOnUse" id="color-19"><stop offset="0" stop-color="#492800"/><stop offset="1" stop-color="#e6bb5f"/></linearGradient></defs><g transform="translate(-56.89784,-106.37449)"><g data-paper-data="{&quot;isPaintingLayer&quot;:true}" fill-rule="nonzero" stroke-linejoin="miter" stroke-miterlimit="10" stroke-dasharray="" stroke-dashoffset="0" style="mix-blend-mode: normal"><g stroke="none" stroke-width="1" stroke-linecap="butt"><path d="M96.71969,113.38022c0.52773,1.1874 -10.48871,0.85757 -10.48871,18.47069c0,17.61312 -0.85757,20.84549 -2.3748,20.31776c-2.30884,-0.72563 -0.26387,-2.50674 -0.26387,-20.11986c-0.06597,-11.61015 7.58618,-24.20979 13.12738,-18.66859z" fill="url(#color-1)"/><path d="M95.46632,115.42519c0.52773,1.1874 -8.11391,2.90254 -8.11391,20.51566c0,17.61312 -0.85757,20.84549 -2.3748,20.31776c-2.30884,-0.72563 -0.26387,-2.50674 -0.26387,-20.11986c0,-11.61015 5.27734,-26.25476 10.75258,-20.71356z" fill="url(#color-2)"/><path d="M91.64025,113.05039c0.52773,1.1874 -8.11391,2.90254 -8.11391,20.51566c0,17.61312 -0.85757,20.84549 -2.3748,20.31776c-2.30884,-0.72563 -0.26387,-2.50674 -0.26387,-20.11986c0,-11.67611 5.27734,-26.25476 10.75258,-20.71356z" fill="url(#color-3)"/><path d="M83.06457,127.4971c0,17.61312 4.55171,17.94295 3.03447,17.48119c-2.30884,0.65967 -3.62817,-0.06597 -5.27734,-17.61312c-1.12143,-12.13788 3.89204,-20.97742 12.73158,-18.33875c0.52773,1.1874 -10.48871,0.85757 -10.48871,18.47069z" fill="url(#color-4)"/><path d="M100.54576,111.00542c0.52773,1.1874 -10.48871,0.85757 -10.48871,18.47069c0,17.61312 -0.85757,20.84549 -2.3748,20.31776c-2.30884,-0.72563 -0.26387,-2.50674 -0.26387,-20.11986c-0.06597,-11.67611 7.65214,-24.20979 13.12738,-18.66859z" fill="url(#color-5)"/><path d="M99.35836,113.05039c0.52773,1.1874 -8.11391,2.90254 -8.11391,20.51566c0,17.61312 -0.85757,20.84549 -2.44077,20.31776c-2.30884,-0.72563 -0.26387,-2.50674 -0.26387,-20.11986c0.06597,-11.67611 5.27734,-26.25476 10.81855,-20.71356z" fill="url(#color-6)"/><path d="M97.64322,114.23779c0.52773,1.1874 -4.74961,6.72861 -4.74961,24.34173c0,17.61312 -0.85757,20.84549 -2.3748,20.31776c-2.30884,-0.72563 -0.26387,-2.50674 -0.26387,-20.11986c0,-11.61015 4.28784,-31.5321 7.38828,-24.53963z" fill="url(#color-7)"/><path d="M91.64025,108.56465c5.47524,-5.54121 13.19335,7.05844 13.19335,18.66859c0,17.61312 2.04497,19.39422 -0.26387,20.11986c-1.51724,0.46177 -2.3748,-2.70464 -2.3748,-20.31776c0,-17.61312 -11.08241,-17.28329 -10.55468,-18.47069z" fill="url(#color-8)"/><path d="M92.82765,110.60962c5.47524,-5.54121 10.75258,9.10341 10.75258,20.77952c0,17.61312 2.04497,19.39422 -0.26387,20.11986c-1.51724,0.46177 -2.3748,-2.70464 -2.3748,-20.31776c0,-17.61312 -8.57568,-19.39422 -8.11391,-20.58162z" fill="url(#color-9)"/><path d="M99.55626,112.06088c3.10044,-6.99247 7.38828,12.92948 7.38828,24.60559c0,17.61312 2.04497,19.39422 -0.26387,20.11986c-1.51724,0.46177 -2.44077,-2.70464 -2.44077,-20.31776c0,-17.61312 -5.21137,-23.28626 -4.68364,-24.40769z" fill="url(#color-10)"/><path d="M97.84112,110.87348c5.47524,-5.54121 10.75258,9.10341 10.75258,20.77952c0,17.61312 2.04497,19.39422 -0.26387,20.11986c-1.51724,0.46177 -2.3748,-2.70464 -2.3748,-20.31776c0,-17.61312 -8.64164,-19.46019 -8.11391,-20.58162z" fill="url(#color-11)"/><path d="M94.54278,111.86298c3.10044,-6.99247 7.38828,12.92948 7.38828,24.60559c0,17.61312 2.04497,19.39422 -0.26387,20.11986c-1.51724,0.46177 -2.44077,-2.70464 -2.44077,-20.31776c0,-17.61312 -5.21137,-23.28626 -4.68364,-24.40769z" fill="url(#color-12)"/><path d="M85.96711,113.97392" fill="#e5ba5e"/></g><g><g data-paper-data="{&quot;origPos&quot;:null}" fill="none" stroke-width="5.475" stroke-linecap="butt"><path d="M91.44235,221.03794c0,-18.00892 10.88451,-32.58757 24.27576,-32.58757c13.39125,0 24.27576,14.57865 24.27576,32.58757c0,18.00892 -10.88451,32.58757 -24.27576,32.58757c-13.39125,0 -24.27576,-14.57865 -24.27576,-32.58757z" stroke="#23262b"/><path d="M93.68522,221.03794c0,-16.35975 9.82904,-29.5531 22.03289,-29.5531c12.20385,0 22.03289,13.25932 22.03289,29.5531c0,16.35975 -9.82904,29.5531 -22.03289,29.5531c-12.20385,0 -22.03289,-13.25932 -22.03289,-29.5531z" stroke="#6c7585"/></g><g data-paper-data="{&quot;origPos&quot;:null}" fill="none" stroke-linecap="butt"><g data-paper-data="{&quot;origPos&quot;:null}"><path d="M136.0139,247.35867c0,-3.43027 2.3748,-6.26684 5.27734,-6.26684c2.90254,0 5.27734,2.7706 5.27734,6.26684c0,3.49624 -2.3748,6.26684 -5.27734,6.26684c-2.90254,0 -5.27734,-2.83657 -5.27734,-6.26684z" stroke="#23262b" stroke-width="5.475"/><path d="M137.92693,247.35867c0,-2.1769 1.51724,-3.958 3.29834,-3.958c1.7811,0 3.29834,1.7811 3.29834,3.958c0,2.1769 -1.51724,3.958 -3.29834,3.958c-1.7811,0 -3.29834,-1.7811 -3.29834,-3.958z" stroke="#6c7585" stroke-width="4.745"/></g><path d="M114.33281,249.53558v-43.80192h25.52913v43.80192z" data-paper-data="{&quot;origPos&quot;:null}" stroke="#000000" stroke-width="3.65"/><g data-paper-data="{&quot;origPos&quot;:null}"><path d="M109.60517,247.35867c0,-3.43027 2.3748,-6.26684 5.27734,-6.26684c2.90254,0 5.27734,2.7706 5.27734,6.26684c0,3.49624 -2.3748,6.26684 -5.27734,6.26684c-2.90254,0 -5.27734,-2.83657 -5.27734,-6.26684z" stroke="#23262b" stroke-width="5.475"/><path d="M111.5182,247.35867c0,-2.1769 1.51724,-3.958 3.29834,-3.958c1.84707,0 3.29834,1.7811 3.29834,3.958c0,2.1769 -1.51724,3.958 -3.29834,3.958c-1.7811,0 -3.29834,-1.7811 -3.29834,-3.958z" stroke="#6c7585" stroke-width="4.745"/></g></g><g data-paper-data="{&quot;origPos&quot;:null}" fill="none" stroke="#000000" stroke-width="3.65" stroke-linecap="round"><path d="M157.27716,246.63304l-17.34925,-0.13193l-17.81102,-35.16027" data-paper-data="{&quot;origPos&quot;:null}"/><path d="M138.01487,246.63304l-17.34925,-0.13193l-17.81102,-35.16027" data-paper-data="{&quot;origPos&quot;:null}"/></g><g data-paper-data="{&quot;origPos&quot;:null}"><path d="M139.99387,183.76673h-38.52458" fill="none" stroke="#000000" stroke-width="3.65" stroke-linecap="round"/><g stroke-linecap="butt"><path d="M106.87857,210.74713v-18.27279h27.9699v18.27279z" fill="#282c2c" stroke="none" stroke-width="1"/><path d="M106.87857,211.73663v-27.5741h28.43167v27.5741z" fill="none" stroke="#000000" stroke-width="3.65"/></g></g><g><path d="M72.97166,231.52666v-33.57707h49.87086v33.57707z" data-paper-data="{&quot;origPos&quot;:null}" fill="none" stroke="#000000" stroke-width="3.65" stroke-linecap="butt"/><g data-paper-data="{&quot;origPos&quot;:null}"><path d="M72.97166,212.46227v-14.44672h67.15414v14.44672z" data-paper-data="{&quot;origPos&quot;:null}" fill="#4d535e" stroke="#000000" stroke-width="3.65" stroke-linecap="butt"/><g data-paper-data="{&quot;origPos&quot;:null}"><path d="M72.70779,196.79517v-23.58311h28.1678v23.58311z" data-paper-data="{&quot;origPos&quot;:null}" fill="#4d535e" stroke="none" stroke-width="1" stroke-linecap="butt"/><path d="M87.41838,168.13262c0,0 8.17988,-5.80507 11.08241,0.3958c3.69414,7.71811 3.10044,29.68503 3.10044,29.68503" data-paper-data="{&quot;origPos&quot;:null}" fill="none" stroke="#000000" stroke-width="3.65" stroke-linecap="round"/><path d="M58.72284,168.13262c0,0 8.17988,-5.80507 11.08241,0.3958c3.69414,7.71811 3.10044,29.68503 3.10044,29.68503" data-paper-data="{&quot;origPos&quot;:null}" fill="none" stroke="#000000" stroke-width="3.65" stroke-linecap="round"/></g></g></g></g><g stroke="none" stroke-width="1" stroke-linecap="butt"><path d="M126.40472,186.9991l-3.10044,3.3643l-12.26981,-13.85302c0,0 0.1979,-3.23237 1.979,-3.89204c1.31933,-0.52773 3.69414,-1.12143 3.69414,-1.12143z" fill="#72471e"/><path d="M132.60559,199.66472c-0.85757,0.52773 -3.43027,-4.68364 -4.41977,-4.41977c-0.72563,0.1979 1.979,2.9685 2.04497,3.62817c0.06597,0.5937 -1.84707,0.3958 -1.84707,0.3958c0,0 -2.9685,-2.30884 -4.08994,-3.69414c-2.50674,-3.1664 -1.5832,-7.71811 -1.5832,-7.71811l3.5622,-1.84707c0,0 4.35381,2.50674 5.87104,4.94751c1.3853,2.24287 1.64917,6.06894 1.64917,6.06894c0,0 -0.26387,2.04497 -1.1874,2.63867z" fill="#764a21"/></g><g stroke="none" stroke-width="1" stroke-linecap="butt"><path d="M137.88293,239.3767l-6.00297,-34.03884c0,0 -18.66859,5.21137 -27.11233,1.12143c-8.90551,-4.35381 -10.75258,-14.97445 -10.75258,-14.97445h16.88749l31.73,5.40927l4.68364,42.54855h-9.43324z" data-paper-data="{&quot;origPos&quot;:null}" fill="#a6bac7"/><path d="M138.9384,245.5116l0.46177,-6.39877l8.31181,0.3958l5.34331,1.51724l4.1559,4.48574z" data-paper-data="{&quot;origPos&quot;:null}" fill="#d6d6d6"/></g><g stroke="none" stroke-width="1" stroke-linecap="butt"><path d="M115.38828,177.56586c-1.64917,0.26387 -4.48574,-0.85757 -4.48574,-0.85757c0,0 -4.22187,-30.9384 -0.5937,-32.05984c6.59667,-2.24287 7.78408,30.7405 7.78408,30.7405c0,0 -1.05547,1.91304 -2.70464,2.1769z" fill="#72471e"/><path d="M107.8021,166.28555c0,0 -4.74961,-22.49466 1.31933,-23.94593c5.34331,-1.31933 11.34628,19.92196 11.34628,19.92196z" fill="#c09898"/></g><g stroke="none" stroke-width="1" stroke-linecap="butt"><path d="M119.87401,239.31073l-3.3643,-32.1258c0,0 -24.47366,3.03447 -29.3552,0.3958c-12.53368,-6.66264 -8.70761,-16.16185 -8.70761,-16.16185h17.28329l33.51111,8.90551v38.85441z" data-paper-data="{&quot;origPos&quot;:null}" fill="#a6bac7"/><path d="M120.73158,245.84144l0.13193,-6.72861l8.31181,0.3958l5.34331,1.51724l4.1559,4.48574z" data-paper-data="{&quot;origPos&quot;:null}" fill="#d6d6d6"/></g><path d="M76.73176,193.46384l1.7811,-50.72843c0,0 7.45424,-3.29834 15.70008,-3.43027c8.24584,-0.13193 17.01942,2.3748 17.01942,2.3748l-2.11094,51.12423z" fill="#d0a5a5" stroke="none" stroke-width="1" stroke-linecap="butt"/><g><g data-paper-data="{&quot;origPos&quot;:null}"><path d="M67.76029,183.76673h38.52458" fill="none" stroke="#000000" stroke-width="3.65" stroke-linecap="round"/><g stroke-linecap="butt"><path d="M73.16956,210.74713v-18.27279h27.90393v18.27279z" fill="#282c2c" stroke="none" stroke-width="1"/><path d="M73.16956,211.73663v-27.5741h28.43167v27.5741z" fill="none" stroke="#000000" stroke-width="3.65"/></g></g><g data-paper-data="{&quot;origPos&quot;:null}" fill="none" stroke-width="5.475" stroke-linecap="butt"><path d="M61.16361,221.03794c0,-18.00892 10.88451,-32.58757 24.27576,-32.58757c13.39125,0 24.27576,14.57865 24.27576,32.58757c0,18.00892 -10.88451,32.58757 -24.27576,32.58757c-13.39125,0 -24.27576,-14.57865 -24.27576,-32.58757z" stroke="#23262b"/><path d="M63.14262,221.36778c0,-16.35975 9.82904,-29.5531 22.03289,-29.5531c12.20385,0 22.03289,13.25932 22.03289,29.5531c0,16.29379 -9.89501,29.5531 -22.03289,29.5531c-12.13788,0 -22.03289,-13.25932 -22.03289,-29.5531z" stroke="#6c7585"/></g></g><g stroke="none" stroke-width="1" stroke-linecap="butt"><path d="M64.85775,176.31249c-1.3853,-0.46177 -3.29834,-2.24287 -3.29834,-2.24287c0,0 11.34628,-32.45564 19.46019,-30.47664c6.39877,1.25337 -12.40175,32.7195 -12.40175,32.7195c0,0 -2.3748,0.46177 -3.7601,0z" fill="#764a21"/><path d="M65.18758,158.89727c0,0 11.41225,-17.34925 15.23832,-15.96395c9.10341,3.29834 -3.89204,24.40769 -3.89204,24.40769z" fill="#c09898"/></g><g fill="#764a21" stroke="none" stroke-width="1" stroke-linecap="butt"><path d="M89.66125,132.84041l10.02694,2.24287l-0.06597,6.00297c0,0 3.23237,0.5937 3.1664,2.44077c-0.06597,2.9685 -12.46771,4.55171 -15.04042,0c-0.9895,-2.24287 1.31933,-3.03447 1.31933,-3.03447z" data-paper-data="{&quot;origPos&quot;:null}"/><path d="M86.62678,125.5181c0.52773,1.5832 0.1979,3.10044 -0.65967,3.3643c-0.92353,0.32983 -2.11094,-0.65967 -2.63867,-2.24287c-0.52773,-1.5832 -0.1979,-3.10044 0.65967,-3.3643c0.92353,-0.32983 2.11094,0.72563 2.63867,2.24287z" data-paper-data="{&quot;origPos&quot;:null}"/><path d="M107.4063,124.06683c0,8.44374 -5.21137,12.92948 -9.69711,13.12738c-7.78408,0.13193 -12.79755,-6.26684 -12.79755,-14.71058c0,-8.44374 1.45127,-14.77655 11.34628,-15.23832c7.52021,-0.3958 12.4567,7.58618 11.13736,16.62362z" data-paper-data="{&quot;origPos&quot;:null}"/></g><path d="M102.32686,112.91845c-1.64917,-0.32983 -9.89501,-0.06597 -11.41225,0.65967c-3.7601,1.91304 -4.68364,10.48871 -4.68364,10.48871l-1.71514,-0.52773c0,0 -2.30884,-16.42572 11.80805,-16.29379c7.52021,-0.3958 10.75258,6.72861 11.08241,11.01645c0,-0.06597 0.26387,-4.28784 -5.07944,-5.34331z" fill="#38220f" stroke="none" stroke-width="1" stroke-linecap="butt"/><path d="M99.75416,132.44461c0,0.46177 -1.31933,1.45127 -2.44077,1.45127c-1.1874,0 -2.30884,-1.25337 -2.30884,-1.7811c0,-0.46177 1.45127,0 2.63867,0c1.12143,0.06597 2.11094,-0.13193 2.11094,0.32983z" fill="#000000" stroke="none" stroke-width="1" stroke-linecap="butt"/><path d="M99.22642,127.8929c0,0 -0.46177,0.46177 -1.45127,0.3958c-0.46177,-0.06597 -1.05547,-0.3958 -1.05547,-0.3958" fill="none" stroke="#000000" stroke-width="1.46" stroke-linecap="round"/><g><path d="M90.45285,119.77899c0,0 1.91304,-0.52773 2.90254,-0.52773c1.12143,-0.06597 2.44077,0.52773 2.44077,0.52773" fill="none" stroke="#000000" stroke-width="1.46" stroke-linecap="round"/><g><path d="M90.38688,122.61556c0,0 1.45127,-1.25337 2.9685,-1.12143c1.64917,0.13193 1.91304,0.9895 1.91304,0.9895" fill="none" stroke="#000000" stroke-width="1.46" stroke-linecap="round"/><path d="M92.56378,123.1433c0,-0.7916 0.5937,-1.45127 1.3853,-1.45127c0.7916,0 1.3853,0.65967 1.3853,1.45127c0,0.7916 -0.5937,1.45127 -1.3853,1.45127c-0.72563,0 -1.3853,-0.65967 -1.3853,-1.45127z" fill="#000000" stroke="none" stroke-width="1" stroke-linecap="butt"/></g></g><g><path d="M100.61172,119.71303c0,0 1.51724,-0.52773 2.63867,-0.52773c0.9895,0.06597 2.11094,0.32983 2.11094,0.32983" fill="none" stroke="#000000" stroke-width="1.46" stroke-linecap="round"/><g><path d="M100.61172,122.41766c0,0 0.32983,-0.85757 1.91304,-0.9895c1.51724,-0.13193 2.9685,1.12143 2.9685,1.12143" fill="none" stroke="#000000" stroke-width="1.46" stroke-linecap="round"/><path d="M103.71216,124.39667c-0.7916,0 -1.3853,-0.65967 -1.3853,-1.45127c0,-0.7916 0.5937,-1.45127 1.3853,-1.45127c0.7916,0 1.3853,0.65967 1.3853,1.45127c0,0.7916 -0.65967,1.45127 -1.3853,1.45127z" fill="#000000" stroke="none" stroke-width="1" stroke-linecap="butt"/></g></g><g stroke="none" stroke-width="1" stroke-linecap="butt"><g data-paper-data="{&quot;origPos&quot;:null}"><path d="M96.38985,108.82851c5.47524,-5.54121 13.19335,7.05844 13.19335,18.66859c0,17.61312 2.04497,19.39422 -0.26387,20.11986c-1.51724,0.46177 -2.3748,-2.70464 -2.3748,-20.31776c0,-17.61312 -11.01645,-17.34925 -10.55468,-18.47069z" fill="url(#color-13)"/><path d="M95.07052,107.90498c5.47524,-5.54121 14.90848,4.88154 14.90848,16.55765c0,17.61312 0.3958,21.57112 -1.979,22.29676c-1.51724,0.46177 -0.7916,-3.49624 -0.7916,-21.17532c0,-17.67909 -12.66561,-16.55765 -12.13788,-17.67909z" data-paper-data="{&quot;origPos&quot;:null}" fill="url(#color-14)"/><path d="M96.25792,109.94995c5.47524,-5.54121 12.33578,6.20087 12.33578,17.87699c0,17.61312 0.46177,22.23079 -1.84707,22.95643c-1.51724,0.46177 -0.13193,-4.41977 -0.13193,-22.03289c0,-17.61312 -10.88451,-17.61312 -10.35678,-18.80052z" fill="url(#color-15)"/><path d="M97.51129,110.93945c3.10044,-6.99247 11.14838,7.32231 11.14838,18.99842c0,17.61312 -3.7601,23.68206 -5.54121,20.77952c-1.05547,-1.71514 3.03447,-3.29834 3.03447,-20.91146c0,-17.61312 -9.16938,-17.74505 -8.64164,-18.86649z" fill="url(#color-16)"/></g><g data-paper-data="{&quot;origPos&quot;:null}"><path d="M85.04357,125.5181c0,17.61312 -0.85757,20.84549 -2.3748,20.31776c-2.30884,-0.72563 -0.26387,-2.50674 -0.26387,-20.11986c0,-11.67611 4.35381,-21.30726 13.19335,-18.66859c0.52773,1.1874 -10.55468,0.85757 -10.55468,18.47069z" fill="url(#color-17)"/><path d="M85.57131,129.14627c0,17.61312 -0.85757,20.84549 -2.3748,20.31776c-2.30884,-0.72563 -0.26387,-2.50674 -0.26387,-20.11986c0,-11.67611 8.64164,-25.85896 14.18285,-20.31776c0.52773,1.25337 -11.54418,2.50674 -11.54418,20.11986z" fill="url(#color-18)"/><path d="M87.28644,133.17024c1.05547,17.61312 -0.85757,20.84549 -2.3748,20.31776c-2.30884,-0.72563 -0.26387,-2.50674 -0.26387,-20.11986c0,-11.67611 1.7811,-26.3867 14.44672,-23.28626c0.92353,5.27734 -13.39125,-3.03447 -11.80805,23.08836z" fill="url(#color-19)"/></g></g><g data-paper-data="{&quot;origRot&quot;:0}" fill="#764a21" stroke="none" stroke-width="1" stroke-linecap="butt"><path d="M75.18821,186.69203l-13.50484,-12.37886c0,0 1.16477,-2.12043 1.95321,-3.33528c1.06873,-1.53082 4.34939,-1.09953 4.34939,-1.09953l11.21672,14.50813z" data-paper-data="{&quot;origPos&quot;:null}"/><path d="M84.94482,194.85086c0,0 -3.79098,-0.78745 -5.88786,-2.41346c-2.22202,-1.76441 -4.16798,-6.35504 -4.16798,-6.35504l2.34518,-3.24926c0,0 4.77032,-0.28557 7.59739,2.56657c1.2539,1.31881 3.20783,4.45671 3.20783,4.45671c0,0 -0.0281,1.84806 -0.68355,1.74858c-0.58618,-0.16195 -3.01132,-3.12564 -3.37426,-2.48358c-0.44231,0.90216 4.47967,4.12516 3.78055,4.8822c-0.63988,0.89213 -2.81731,0.84728 -2.81731,0.84728z" data-paper-data="{&quot;origPos&quot;:null}"/></g></g></g></svg>