<svg version="1.1" xmlns="http://www.w3.org/2000/svg" xmlns:xlink="http://www.w3.org/1999/xlink" width="83.28955" height="39.15247" viewBox="0,0,83.28955,39.15247"><g transform="translate(-78.35522,-180.42376)"><g data-paper-data="{&quot;isPaintingLayer&quot;:true}" fill-rule="nonzero" stroke-linejoin="miter" stroke-miterlimit="10" stroke-dasharray="" stroke-dashoffset="0" style="mix-blend-mode: normal"><path d="M78.35523,215.99113c0,-8.31779 0,-28.53841 0,-32.72024c0,-1.48282 2.31899,-2.84712 4.96165,-2.84712c8.80805,0 57.95794,0 73.5684,0c2.99846,0 4.75949,1.40183 4.75949,2.91644c0,4.26193 0,24.81167 0,32.92821c0,2.05078 -2.56482,3.30782 -5.4273,3.30782c-9.02392,0 -56.9646,0 -72.78929,0c-3.18831,0 -5.07296,-1.37076 -5.07296,-3.58512z" fill="#e7e7e7" stroke="#001026" stroke-width="0" stroke-linecap="butt"/><path d="M100.15625,200.1875l11.5625,-11.5625h28.125v22.75h-28.625z" fill="none" stroke="#000000" stroke-width="1.5" stroke-linecap="round"/><g fill="none" stroke="#000000" stroke-width="1.5" stroke-linecap="round"><path d="M116.51562,205.89063l12,-12"/><path d="M116.48438,194.10938l12,12"/></g></g></g></svg>