<svg version="1.1" xmlns="http://www.w3.org/2000/svg" xmlns:xlink="http://www.w3.org/1999/xlink" width="19.22718" height="19.09892" viewBox="0,0,19.22718,19.09892"><g transform="translate(-98.38641,-170.45053)"><g stroke-miterlimit="10"><path d="M98.38641,187.80061c0,-4.05749 0,-13.9213 0,-15.96122c0,-0.72333 0.53534,-1.38886 1.14538,-1.38886c2.03331,0 13.37945,0 16.98308,0c0.69219,0 1.09872,0.68383 1.09872,1.42266c0,2.07901 0,12.10337 0,16.06268c0,1.0004 -0.59209,1.61358 -1.25287,1.61358c-2.08316,0 -13.15013,0 -16.80322,0c-0.73602,0 -1.17108,-0.66867 -1.17108,-1.74886z" fill="#fafafa" stroke="#001026" stroke-width="0" stroke-linecap="butt"/><path d="M111.02768,186.0013l-6.05537,-6.05537l5.94723,-5.94723" fill="none" stroke="#252525" stroke-width="2" stroke-linecap="round"/></g></g></svg>