<svg version="1.1" xmlns="http://www.w3.org/2000/svg" xmlns:xlink="http://www.w3.org/1999/xlink" width="154.87500915527343" height="228.6950927734375" viewBox="-0.912499952316284 -2.737498331069946 154.87500915527343 228.6950927734375"><defs><linearGradient x1="223.0494" y1="58.83613" x2="223.0494" y2="128.87482" gradientUnits="userSpaceOnUse" id="color-1"><stop offset="0" stop-color="#563408"/><stop offset="1" stop-color="#e5ba5e"/></linearGradient><linearGradient x1="223.0529" y1="65.04112" x2="223.0529" y2="135.07983" gradientUnits="userSpaceOnUse" id="color-2"><stop offset="0" stop-color="#563408"/><stop offset="1" stop-color="#e5ba5e"/></linearGradient><linearGradient x1="217.2129" y1="61.39113" x2="217.2129" y2="131.42983" gradientUnits="userSpaceOnUse" id="color-3"><stop offset="0" stop-color="#563408"/><stop offset="1" stop-color="#e5ba5e"/></linearGradient><linearGradient x1="219.1822" y1="52.20263" x2="219.1822" y2="122.24133" gradientUnits="userSpaceOnUse" id="color-4"><stop offset="0" stop-color="#563408"/><stop offset="1" stop-color="#e5ba5e"/></linearGradient><linearGradient x1="228.8894" y1="55.18613" x2="228.8894" y2="125.22483" gradientUnits="userSpaceOnUse" id="color-5"><stop offset="0" stop-color="#563408"/><stop offset="1" stop-color="#e5ba5e"/></linearGradient><linearGradient x1="228.8929" y1="61.39113" x2="228.8929" y2="131.42983" gradientUnits="userSpaceOnUse" id="color-6"><stop offset="0" stop-color="#563408"/><stop offset="1" stop-color="#e5ba5e"/></linearGradient><linearGradient x1="228.9029" y1="69.05612" x2="228.9029" y2="139.09482" gradientUnits="userSpaceOnUse" id="color-7"><stop offset="0" stop-color="#563408"/><stop offset="1" stop-color="#e5ba5e"/></linearGradient><linearGradient x1="236.6349" y1="51.53613" x2="236.6349" y2="121.57483" gradientUnits="userSpaceOnUse" id="color-8"><stop offset="0" stop-color="#563408"/><stop offset="1" stop-color="#e5ba5e"/></linearGradient><linearGradient x1="236.6314" y1="57.74113" x2="236.6314" y2="127.77983" gradientUnits="userSpaceOnUse" id="color-9"><stop offset="0" stop-color="#563408"/><stop offset="1" stop-color="#e5ba5e"/></linearGradient><linearGradient x1="244.1942" y1="65.72732" x2="244.1942" y2="135.76603" gradientUnits="userSpaceOnUse" id="color-10"><stop offset="0" stop-color="#563408"/><stop offset="1" stop-color="#e5ba5e"/></linearGradient><linearGradient x1="244.2041" y1="58.06233" x2="244.2041" y2="128.10091" gradientUnits="userSpaceOnUse" id="color-11"><stop offset="0" stop-color="#563408"/><stop offset="1" stop-color="#e5ba5e"/></linearGradient><linearGradient x1="236.6214" y1="65.40613" x2="236.6214" y2="135.44483" gradientUnits="userSpaceOnUse" id="color-12"><stop offset="0" stop-color="#563408"/><stop offset="1" stop-color="#e5ba5e"/></linearGradient><linearGradient x1="217.37" y1="70.82403" x2="217.37" y2="70.82403" gradientUnits="userSpaceOnUse" id="color-13"><stop offset="0" stop-color="#563408"/><stop offset="1" stop-color="#e5ba5e"/></linearGradient><linearGradient x1="243.8427" y1="51.85733" x2="243.8427" y2="121.89593" gradientUnits="userSpaceOnUse" id="color-14"><stop offset="0" stop-color="#5c3300"/><stop offset="1" stop-color="#e6bb5f"/></linearGradient><linearGradient x1="242.4591" y1="50.50023" x2="242.4591" y2="120.53883" gradientUnits="userSpaceOnUse" id="color-15"><stop offset="0" stop-color="#5c3300"/><stop offset="1" stop-color="#e6bb5f"/></linearGradient><linearGradient x1="242.3864" y1="56.70523" x2="242.3864" y2="126.74383" gradientUnits="userSpaceOnUse" id="color-16"><stop offset="0" stop-color="#5c3300"/><stop offset="1" stop-color="#e6bb5f"/></linearGradient><linearGradient x1="243.302" y1="64.02491" x2="243.302" y2="134.06353" gradientUnits="userSpaceOnUse" id="color-17"><stop offset="0" stop-color="#5c3300"/><stop offset="1" stop-color="#e6bb5f"/></linearGradient><linearGradient x1="221.3729" y1="49.24323" x2="221.3729" y2="119.28193" gradientUnits="userSpaceOnUse" id="color-18"><stop offset="0" stop-color="#492800"/><stop offset="1" stop-color="#e6bb5f"/></linearGradient><linearGradient x1="222.9258" y1="54.75763" x2="222.9258" y2="124.79633" gradientUnits="userSpaceOnUse" id="color-19"><stop offset="0" stop-color="#492800"/><stop offset="1" stop-color="#e6bb5f"/></linearGradient><linearGradient x1="225.6874" y1="60.86863" x2="225.6874" y2="130.90732" gradientUnits="userSpaceOnUse" id="color-20"><stop offset="0" stop-color="#492800"/><stop offset="1" stop-color="#e6bb5f"/></linearGradient><linearGradient x1="48.7744" y1="-0.4938" x2="48.7744" y2="69.5449" gradientUnits="userSpaceOnUse" id="color-1-,0,0,1,-174.275,-59.32993"><stop offset="0" stop-color="#563408"/><stop offset="1" stop-color="#e5ba5e"/></linearGradient><linearGradient x1="48.7779" y1="5.7112" x2="48.7779" y2="75.7499" gradientUnits="userSpaceOnUse" id="color-2-,0,0,1,-174.275,-59.32993"><stop offset="0" stop-color="#563408"/><stop offset="1" stop-color="#e5ba5e"/></linearGradient><linearGradient x1="42.9379" y1="2.0612" x2="42.9379" y2="72.0999" gradientUnits="userSpaceOnUse" id="color-3-,0,0,1,-174.275,-59.32993"><stop offset="0" stop-color="#563408"/><stop offset="1" stop-color="#e5ba5e"/></linearGradient><linearGradient x1="44.9072" y1="-7.1273" x2="44.9072" y2="62.9114" gradientUnits="userSpaceOnUse" id="color-4-,0,0,1,-174.275,-59.32993"><stop offset="0" stop-color="#563408"/><stop offset="1" stop-color="#e5ba5e"/></linearGradient><linearGradient x1="54.6144" y1="-4.1438" x2="54.6144" y2="65.8949" gradientUnits="userSpaceOnUse" id="color-5-,0,0,1,-174.275,-59.32993"><stop offset="0" stop-color="#563408"/><stop offset="1" stop-color="#e5ba5e"/></linearGradient><linearGradient x1="54.6179" y1="2.0612" x2="54.6179" y2="72.0999" gradientUnits="userSpaceOnUse" id="color-6-,0,0,1,-174.275,-59.32993"><stop offset="0" stop-color="#563408"/><stop offset="1" stop-color="#e5ba5e"/></linearGradient><linearGradient x1="54.6279" y1="9.7262" x2="54.6279" y2="79.7649" gradientUnits="userSpaceOnUse" id="color-7-,0,0,1,-174.275,-59.32993"><stop offset="0" stop-color="#563408"/><stop offset="1" stop-color="#e5ba5e"/></linearGradient><linearGradient x1="62.3599" y1="-7.7938" x2="62.3599" y2="62.2449" gradientUnits="userSpaceOnUse" id="color-8-,0,0,1,-174.275,-59.32993"><stop offset="0" stop-color="#563408"/><stop offset="1" stop-color="#e5ba5e"/></linearGradient><linearGradient x1="62.3564" y1="-1.5888" x2="62.3564" y2="68.4499" gradientUnits="userSpaceOnUse" id="color-9-,0,0,1,-174.275,-59.32993"><stop offset="0" stop-color="#563408"/><stop offset="1" stop-color="#e5ba5e"/></linearGradient><linearGradient x1="69.9192" y1="6.3974" x2="69.9192" y2="76.4361" gradientUnits="userSpaceOnUse" id="color-10-,0,0,1,-174.275,-59.32993"><stop offset="0" stop-color="#563408"/><stop offset="1" stop-color="#e5ba5e"/></linearGradient><linearGradient x1="69.9291" y1="-1.2676" x2="69.9291" y2="68.771" gradientUnits="userSpaceOnUse" id="color-11-,0,0,1,-174.275,-59.32993"><stop offset="0" stop-color="#563408"/><stop offset="1" stop-color="#e5ba5e"/></linearGradient><linearGradient x1="62.3464" y1="6.0762" x2="62.3464" y2="76.1149" gradientUnits="userSpaceOnUse" id="color-12-,0,0,1,-174.275,-59.32993"><stop offset="0" stop-color="#563408"/><stop offset="1" stop-color="#e5ba5e"/></linearGradient><linearGradient x1="69.5677" y1="-7.4726" x2="69.5677" y2="62.566" gradientUnits="userSpaceOnUse" id="color-14-,0,0,1,-174.275,-59.32993"><stop offset="0" stop-color="#5c3300"/><stop offset="1" stop-color="#e6bb5f"/></linearGradient><linearGradient x1="68.1841" y1="-8.8297" x2="68.1841" y2="61.2089" gradientUnits="userSpaceOnUse" id="color-15-,0,0,1,-174.275,-59.32993"><stop offset="0" stop-color="#5c3300"/><stop offset="1" stop-color="#e6bb5f"/></linearGradient><linearGradient x1="68.1114" y1="-2.6247" x2="68.1114" y2="67.4139" gradientUnits="userSpaceOnUse" id="color-16-,0,0,1,-174.275,-59.32993"><stop offset="0" stop-color="#5c3300"/><stop offset="1" stop-color="#e6bb5f"/></linearGradient><linearGradient x1="69.027" y1="4.695" x2="69.027" y2="74.7336" gradientUnits="userSpaceOnUse" id="color-17-,0,0,1,-174.275,-59.32993"><stop offset="0" stop-color="#5c3300"/><stop offset="1" stop-color="#e6bb5f"/></linearGradient><linearGradient x1="47.0979" y1="-10.0867" x2="47.0979" y2="59.952" gradientUnits="userSpaceOnUse" id="color-18-,0,0,1,-174.275,-59.32993"><stop offset="0" stop-color="#492800"/><stop offset="1" stop-color="#e6bb5f"/></linearGradient><linearGradient x1="48.6508" y1="-4.5723" x2="48.6508" y2="65.4664" gradientUnits="userSpaceOnUse" id="color-19-,0,0,1,-174.275,-59.32993"><stop offset="0" stop-color="#492800"/><stop offset="1" stop-color="#e6bb5f"/></linearGradient><linearGradient x1="51.4124" y1="1.5387" x2="51.4124" y2="71.5774" gradientUnits="userSpaceOnUse" id="color-20-,0,0,1,-174.275,-59.32993"><stop offset="0" stop-color="#492800"/><stop offset="1" stop-color="#e6bb5f"/></linearGradient></defs><g><g data-paper-data="{&quot;isPaintingLayer&quot;:true}" fill-rule="nonzero" stroke-linejoin="miter" stroke-miterlimit="10" stroke-dasharray="" stroke-dashoffset="0" style="mix-blend-mode: normal"><g data-paper-data="{&quot;origPos&quot;:null}" stroke-linecap="butt"><path d="M 59.425 10.6201 C 60.225 12.4201 43.525 11.9201 43.525 38.6201 C 43.525 65.3201 42.225 70.2201 39.925 69.4201 C 36.425 68.3201 39.525 65.6201 39.525 38.9201 C 39.425 21.3201 51.025 2.2201 59.425 10.6201 Z " fill="url(#color-1-,0,0,1,-174.275,-59.32993)" stroke-width="1" stroke="none"/><path d="M 57.525 13.7201 C 58.325 15.5201 45.225 18.1201 45.225 44.8201 C 45.225 71.5201 43.925 76.4201 41.625 75.6201 C 38.125 74.5201 41.225 71.8201 41.225 45.1201 C 41.225 27.5201 49.225 5.3201 57.525 13.7201 Z " fill="url(#color-2-,0,0,1,-174.275,-59.32993)" stroke-width="1" stroke="none"/><path d="M 51.725 10.1201 C 52.525 11.9201 39.425 14.5201 39.425 41.2201 C 39.425 67.9201 38.125 72.8201 35.825 72.0201 C 32.325 70.9201 35.425 68.2201 35.425 41.5201 C 35.425 23.8201 43.425 1.7201 51.725 10.1201 Z " fill="url(#color-3-,0,0,1,-174.275,-59.32993)" stroke-width="1" stroke="none"/><path d="M 38.725 32.0201 C 38.725 58.7201 45.625 59.2201 43.325 58.5201 C 39.825 59.5201 37.825 58.4201 35.325 31.8201 C 33.625 13.4201 41.225 0.0201 54.625 4.0201 C 55.425 5.8201 38.725 5.3201 38.725 32.0201 Z " fill="url(#color-4-,0,0,1,-174.275,-59.32993)" stroke-width="1" stroke="none"/><path d="M 65.225 7.0201 C 66.025 8.8201 49.325 8.3201 49.325 35.0201 C 49.325 61.7201 48.025 66.6201 45.725 65.8201 C 42.225 64.7201 45.325 62.0201 45.325 35.3201 C 45.225 17.6201 56.925 -1.3799 65.225 7.0201 Z " fill="url(#color-5-,0,0,1,-174.275,-59.32993)" stroke-width="1" stroke="none"/><path d="M 63.425 10.1201 C 64.225 11.9201 51.125 14.5201 51.125 41.2201 C 51.125 67.9201 49.825 72.8201 47.425 72.0201 C 43.925 70.9201 47.025 68.2201 47.025 41.5201 C 47.125 23.8201 55.025 1.7201 63.425 10.1201 Z " fill="url(#color-6-,0,0,1,-174.275,-59.32993)" stroke-width="1" stroke="none"/><path d="M 60.825 11.9201 C 61.625 13.7201 53.625 22.1201 53.625 48.8201 C 53.625 75.5201 52.325 80.4201 50.025 79.6201 C 46.525 78.5201 49.625 75.8201 49.625 49.1201 C 49.625 31.5201 56.125 1.3201 60.825 11.9201 Z " fill="url(#color-7-,0,0,1,-174.275,-59.32993)" stroke-width="1" stroke="none"/><path d="M 51.725 3.3201 C 60.025 -5.0799 71.725 14.0201 71.725 31.6201 C 71.725 58.3201 74.825 61.0201 71.325 62.1201 C 69.025 62.8201 67.725 58.0201 67.725 31.3201 C 67.725 4.6201 50.925 5.1201 51.725 3.3201 Z " fill="url(#color-8-,0,0,1,-174.275,-59.32993)" stroke-width="1" stroke="none"/><path d="M 53.525 6.4201 C 61.825 -1.9799 69.825 20.2201 69.825 37.9201 C 69.825 64.6201 72.925 67.3201 69.425 68.4201 C 67.125 69.1201 65.825 64.3201 65.825 37.6201 C 65.825 10.9201 52.825 8.2201 53.525 6.4201 Z " fill="url(#color-9-,0,0,1,-174.275,-59.32993)" stroke-width="1" stroke="none"/><path d="M 63.725 8.6201 C 68.425 -1.9799 74.925 28.2201 74.925 45.9201 C 74.925 72.6201 78.025 75.3201 74.525 76.4201 C 72.225 77.1201 70.825 72.3201 70.825 45.6201 C 70.825 18.9201 62.925 10.3201 63.725 8.6201 Z " fill="url(#color-10-,0,0,1,-174.275,-59.32993)" stroke-width="1" stroke="none"/><path d="M 61.125 6.8201 C 69.425 -1.5799 77.425 20.6201 77.425 38.3201 C 77.425 65.0201 80.525 67.7201 77.025 68.8201 C 74.725 69.5201 73.425 64.7201 73.425 38.0201 C 73.425 11.3201 60.325 8.5201 61.125 6.8201 Z " fill="url(#color-11-,0,0,1,-174.275,-59.32993)" stroke-width="1" stroke="none"/><path d="M 56.125 8.3201 C 60.825 -2.2799 67.325 27.9201 67.325 45.6201 C 67.325 72.3201 70.425 75.0201 66.925 76.1201 C 64.625 76.8201 63.225 72.0201 63.225 45.3201 C 63.225 18.6201 55.325 10.0201 56.125 8.3201 Z " fill="url(#color-12-,0,0,1,-174.275,-59.32993)" stroke-width="1" stroke="none"/><path d="M 43.125 11.5201 " fill="#e5ba5e" stroke-width="1" stroke="none"/></g><g><g data-paper-data="{&quot;origPos&quot;:null}" stroke-linecap="butt"><path d="M 51.425 173.8201 C 51.425 146.5201 67.925 124.4201 88.225 124.4201 C 108.525 124.4201 125.025 146.5201 125.025 173.8201 C 125.025 201.1201 108.525 223.2201 88.225 223.2201 C 67.925 223.2201 51.425 201.1201 51.425 173.8201 Z " stroke="#23262b" stroke-width="5.475" fill="none"/><path d="M 54.825 173.8201 C 54.825 149.0201 69.725 129.0201 88.225 129.0201 C 106.725 129.0201 121.625 149.1201 121.625 173.8201 C 121.625 198.6201 106.725 218.6201 88.225 218.6201 C 69.725 218.6201 54.825 198.5201 54.825 173.8201 Z " stroke="#6c7585" stroke-width="5.475" fill="none"/></g><g data-paper-data="{&quot;origPos&quot;:null}" stroke-linecap="butt"><g data-paper-data="{&quot;origPos&quot;:null}"><path d="M 118.9917 213.7201 C 118.9917 208.5201 122.5917 204.2201 126.9917 204.2201 C 131.3917 204.2201 134.9917 208.4201 134.9917 213.7201 C 134.9917 219.0201 131.3917 223.2201 126.9917 223.2201 C 122.5917 223.2201 118.9917 218.9201 118.9917 213.7201 Z " stroke="#23262b" stroke-width="5.475" fill="none"/><path d="M 121.8917 213.7201 C 121.8917 210.4201 124.1917 207.7201 126.8917 207.7201 C 129.5917 207.7201 131.8917 210.4201 131.8917 213.7201 C 131.8917 217.0201 129.5917 219.7201 126.8917 219.7201 C 124.1917 219.7201 121.8917 217.0201 121.8917 213.7201 Z " stroke="#6c7585" stroke-width="4.745" fill="none"/></g><path d="M 86.125 217.0201 L 86.125 150.6201 L 124.825 150.6201 L 124.825 217.0201 Z " data-paper-data="{&quot;origPos&quot;:null}" stroke="#000000" stroke-width="3.65" fill="none"/><g data-paper-data="{&quot;origPos&quot;:null}"><path d="M 78.9583 213.7201 C 78.9583 208.5201 82.5583 204.2201 86.9583 204.2201 C 91.3583 204.2201 94.9583 208.4201 94.9583 213.7201 C 94.9583 219.0201 91.3583 223.2201 86.9583 223.2201 C 82.5583 223.2201 78.9583 218.9201 78.9583 213.7201 Z " stroke="#23262b" stroke-width="5.475" fill="none"/><path d="M 81.8583 213.7201 C 81.8583 210.4201 84.1583 207.7201 86.8583 207.7201 C 89.6583 207.7201 91.8583 210.4201 91.8583 213.7201 C 91.8583 217.0201 89.5583 219.7201 86.8583 219.7201 C 84.1583 219.7201 81.8583 217.0201 81.8583 213.7201 Z " stroke="#6c7585" stroke-width="4.745" fill="none"/></g></g><g data-paper-data="{&quot;origPos&quot;:null}" stroke-linecap="round"><path d="M 151.225 212.6201 L 124.925 212.4201 L 97.925 159.1201 " data-paper-data="{&quot;origPos&quot;:null}" stroke-width="3.65" fill="none" stroke="#000000"/><path d="M 122.025 212.6201 L 95.725 212.4201 L 68.725 159.1201 " data-paper-data="{&quot;origPos&quot;:null}" stroke-width="3.65" fill="none" stroke="#000000"/></g><g data-paper-data="{&quot;origPos&quot;:null}"><path d="M 125.025 117.3201 L 66.625 117.3201 " fill="none" stroke="#000000" stroke-width="3.65" stroke-linecap="round"/><g stroke-linecap="butt"><path d="M 74.825 158.2201 L 74.825 130.5201 L 117.225 130.5201 L 117.225 158.2201 Z " fill="#282c2c" stroke="none" stroke-width="1"/><path d="M 74.825 159.7201 L 74.825 117.9201 L 117.925 117.9201 L 117.925 159.7201 Z " fill="none" stroke="#000000" stroke-width="3.65"/></g></g><g><path d="M 23.425 189.7201 L 23.425 138.8201 L 99.025 138.8201 L 99.025 189.7201 Z " data-paper-data="{&quot;origPos&quot;:null}" fill="none" stroke="#000000" stroke-width="3.65" stroke-linecap="butt"/><g data-paper-data="{&quot;origPos&quot;:null}"><path d="M 23.425 160.8201 L 23.425 138.9201 L 125.225 138.9201 L 125.225 160.8201 Z " data-paper-data="{&quot;origPos&quot;:null}" fill="#4d535e" stroke="#000000" stroke-width="3.65" stroke-linecap="butt"/><g data-paper-data="{&quot;origPos&quot;:null}"><path d="M 23.025 137.0701 L 23.025 101.3201 L 65.725 101.3201 L 65.725 137.0701 Z " data-paper-data="{&quot;origPos&quot;:null}" fill="#4d535e" stroke="none" stroke-width="1" stroke-linecap="butt"/><path d="M 45.325 93.6201 C 45.325 93.6201 57.725 84.8201 62.125 94.2201 C 67.725 105.9201 66.825 139.2201 66.825 139.2201 " data-paper-data="{&quot;origPos&quot;:null}" fill="none" stroke="#000000" stroke-width="3.65" stroke-linecap="round"/><path d="M 1.825 93.6201 C 1.825 93.6201 14.225 84.8201 18.625 94.2201 C 24.225 105.9201 23.325 139.2201 23.325 139.2201 " data-paper-data="{&quot;origPos&quot;:null}" fill="none" stroke="#000000" stroke-width="3.65" stroke-linecap="round"/></g></g></g></g><g data-paper-data="{&quot;origPos&quot;:null}" stroke-linecap="butt"><path d="M 104.425 122.2201 L 99.725 127.3201 L 81.125 106.3201 C 81.125 106.3201 81.425 101.4201 84.125 100.4201 C 86.125 99.6201 89.725 98.7201 89.725 98.7201 Z " fill="#72471e" stroke-width="1" stroke="none"/><path d="M 113.825 141.4201 C 112.525 142.2201 108.625 134.3201 107.125 134.7201 C 106.025 135.0201 110.125 139.2201 110.225 140.2201 C 110.325 141.1201 107.425 140.8201 107.425 140.8201 C 107.425 140.8201 102.925 137.3201 101.225 135.2201 C 97.425 130.4201 98.825 123.5201 98.825 123.5201 L 104.225 120.7201 C 104.225 120.7201 110.825 124.5201 113.125 128.2201 C 115.225 131.6201 115.625 137.4201 115.625 137.4201 C 115.625 137.4201 115.225 140.5201 113.825 141.4201 Z " fill="#764a21" stroke-width="1" stroke="none"/></g><g stroke-linecap="butt"><path d="M 121.825 201.6201 L 112.725 150.0201 C 112.725 150.0201 84.425 157.9201 71.625 151.7201 C 58.125 145.1201 55.325 129.0201 55.325 129.0201 L 80.925 129.0201 L 129.025 137.2201 L 136.125 201.7201 L 121.825 201.7201 Z " data-paper-data="{&quot;origPos&quot;:null}" fill="#a6bac7" stroke-width="1" stroke="none"/><path d="M 123.425 210.9201 L 124.125 201.2201 L 136.725 201.8201 L 144.825 204.1201 L 151.125 210.9201 Z " data-paper-data="{&quot;origPos&quot;:null}" fill="#d6d6d6" stroke-width="1" stroke="none"/></g><g data-paper-data="{&quot;origPos&quot;:null}" stroke-linecap="butt"><path d="M 87.725 107.9201 C 85.225 108.3201 80.925 106.6201 80.925 106.6201 C 80.925 106.6201 74.525 59.7201 80.025 58.0201 C 90.025 54.6201 91.825 104.6201 91.825 104.6201 C 91.825 104.6201 90.225 107.5201 87.725 107.9201 Z " fill="#72471e" stroke-width="1" stroke="none"/><path d="M 76.225 90.8201 C 76.225 90.8201 69.025 56.7201 78.225 54.5201 C 86.325 52.5201 95.425 84.7201 95.425 84.7201 Z " fill="#c09898" stroke-width="1" stroke="none"/></g><g stroke-linecap="butt"><path d="M 94.525 201.5201 L 89.425 152.8201 C 89.425 152.8201 52.325 157.4201 44.925 153.4201 C 25.925 143.3201 31.725 128.9201 31.725 128.9201 L 57.925 128.9201 L 108.725 142.4201 L 108.725 201.3201 Z " data-paper-data="{&quot;origPos&quot;:null}" fill="#a6bac7" stroke-width="1" stroke="none"/><path d="M 95.825 211.4201 L 96.025 201.2201 L 108.625 201.8201 L 116.725 204.1201 L 123.025 210.9201 Z " data-paper-data="{&quot;origPos&quot;:null}" fill="#d6d6d6" stroke-width="1" stroke="none"/></g><path d="M 29.125 132.0201 L 31.825 55.1201 C 31.825 55.1201 43.125 50.1201 55.625 49.9201 C 68.125 49.7201 81.425 53.5201 81.425 53.5201 L 78.225 131.0201 Z " data-paper-data="{&quot;origPos&quot;:null}" fill="#d0a5a5" stroke="none" stroke-width="1" stroke-linecap="butt"/><g data-paper-data="{&quot;origPos&quot;:null}"><g data-paper-data="{&quot;origPos&quot;:null}"><path d="M 15.525 117.3201 L 73.925 117.3201 " fill="none" stroke="#000000" stroke-width="3.65" stroke-linecap="round"/><g stroke-linecap="butt"><path d="M 23.725 158.2201 L 23.725 130.5201 L 66.025 130.5201 L 66.025 158.2201 Z " fill="#282c2c" stroke="none" stroke-width="1"/><path d="M 23.725 159.7201 L 23.725 117.9201 L 66.825 117.9201 L 66.825 159.7201 Z " fill="none" stroke="#000000" stroke-width="3.65"/></g></g><g data-paper-data="{&quot;origPos&quot;:null}" stroke-linecap="butt"><path d="M 5.525 173.8201 C 5.525 146.5201 22.025 124.4201 42.325 124.4201 C 62.625 124.4201 79.125 146.5201 79.125 173.8201 C 79.125 201.1201 62.625 223.2201 42.325 223.2201 C 22.025 223.2201 5.525 201.1201 5.525 173.8201 Z " stroke="#23262b" stroke-width="5.475" fill="none"/><path d="M 8.525 174.3201 C 8.525 149.5201 23.425 129.5201 41.925 129.5201 C 60.425 129.5201 75.325 149.6201 75.325 174.3201 C 75.325 199.0201 60.325 219.1201 41.925 219.1201 C 23.525 219.1201 8.525 199.0201 8.525 174.3201 Z " stroke="#6c7585" stroke-width="5.475" fill="none"/></g></g><g data-paper-data="{&quot;origPos&quot;:null}" stroke-linecap="butt"><path d="M 11.125 106.0201 C 9.025 105.3201 6.125 102.6201 6.125 102.6201 C 6.125 102.6201 23.325 53.4201 35.625 56.4201 C 45.325 58.3201 16.825 106.0201 16.825 106.0201 C 16.825 106.0201 13.225 106.7201 11.125 106.0201 Z " fill="#764a21" stroke-width="1" stroke="none"/><path d="M 11.625 79.6201 C 11.625 79.6201 28.925 53.3201 34.725 55.4201 C 48.525 60.4201 28.825 92.4201 28.825 92.4201 Z " fill="#c09898" stroke-width="1" stroke="none"/></g><g data-paper-data="{&quot;origPos&quot;:null}" stroke-linecap="butt"><path d="M 48.725 40.1201 L 63.925 43.5201 L 63.825 52.6201 C 63.825 52.6201 68.725 53.5201 68.625 56.3201 C 68.525 60.8201 49.725 63.2201 45.825 56.3201 C 44.325 52.9201 47.825 51.7201 47.825 51.7201 Z " data-paper-data="{&quot;origPos&quot;:null}" stroke-width="1" fill="#764a21" stroke="none"/><path d="M 44.125 29.0201 C 44.925 31.4201 44.425 33.7201 43.125 34.1201 C 41.725 34.6201 39.925 33.1201 39.125 30.7201 C 38.325 28.3201 38.825 26.0201 40.125 25.6201 C 41.525 25.1201 43.325 26.7201 44.125 29.0201 Z " data-paper-data="{&quot;origPos&quot;:null}" stroke-width="1" fill="#764a21" stroke="none"/><path d="M 75.625 26.8201 C 75.625 39.6201 67.725 46.4201 60.925 46.7201 C 49.125 46.9201 41.525 37.2201 41.525 24.4201 C 41.525 11.6201 43.725 2.0201 58.725 1.3201 C 70.125 0.7201 77.6083 12.8201 75.6083 26.5201 Z " data-paper-data="{&quot;origPos&quot;:null}" stroke-width="1" fill="#764a21" stroke="none"/></g><path d="M 67.925 9.9201 C 65.425 9.4201 52.925 9.8201 50.625 10.9201 C 44.925 13.8201 43.525 26.8201 43.525 26.8201 L 40.925 26.0201 C 40.925 26.0201 37.425 1.1201 58.825 1.3201 C 70.225 0.7201 75.125 11.5201 75.625 18.0201 C 75.625 17.9201 76.025 11.5201 67.925 9.9201 Z " data-paper-data="{&quot;origPos&quot;:null}" fill="#38220f" stroke="none" stroke-width="1" stroke-linecap="butt"/><path d="M 64.025 39.5201 C 64.025 40.2201 62.025 41.7201 60.325 41.7201 C 58.525 41.7201 56.825 39.8201 56.825 39.0201 C 56.825 38.3201 59.025 39.0201 60.825 39.0201 C 62.525 39.1201 64.025 38.8201 64.025 39.5201 Z " fill="#000000" stroke="none" stroke-width="1" stroke-linecap="butt"/><path d="M 63.225 32.6201 C 63.225 32.6201 62.525 33.3201 61.025 33.2201 C 60.325 33.1201 59.425 32.6201 59.425 32.6201 " fill="none" stroke="#000000" stroke-width="1.46" stroke-linecap="round"/><g data-paper-data="{&quot;origPos&quot;:null}"><path d="M 49.925 20.3201 C 49.925 20.3201 52.825 19.5201 54.325 19.5201 C 56.025 19.4201 58.025 20.3201 58.025 20.3201 " fill="none" stroke="#000000" stroke-width="1.46" stroke-linecap="round"/><g><path d="M 49.825 24.6201 C 49.825 24.6201 52.025 22.7201 54.325 22.9201 C 56.825 23.1201 57.225 24.4201 57.225 24.4201 " fill="none" stroke="#000000" stroke-width="1.46" stroke-linecap="round"/><path d="M 53.125 25.4201 C 53.125 24.2201 54.025 23.2201 55.225 23.2201 C 56.425 23.2201 57.325 24.2201 57.325 25.4201 C 57.325 26.6201 56.425 27.6201 55.225 27.6201 C 54.125 27.6201 53.125 26.6201 53.125 25.4201 Z " fill="#000000" stroke="none" stroke-width="1" stroke-linecap="butt"/></g></g><g data-paper-data="{&quot;origPos&quot;:null}"><path d="M 65.325 20.2201 C 65.325 20.2201 67.625 19.4201 69.325 19.4201 C 70.825 19.5201 72.525 19.9201 72.525 19.9201 " fill="none" stroke="#000000" stroke-width="1.46" stroke-linecap="round"/><g><path d="M 65.325 24.3201 C 65.325 24.3201 65.825 23.0201 68.225 22.8201 C 70.525 22.6201 72.725 24.5201 72.725 24.5201 " fill="none" stroke="#000000" stroke-width="1.46" stroke-linecap="round"/><path d="M 70.025 27.3201 C 68.825 27.3201 67.925 26.3201 67.925 25.1201 C 67.925 23.9201 68.825 22.9201 70.025 22.9201 C 71.225 22.9201 72.125 23.9201 72.125 25.1201 C 72.125 26.3201 71.125 27.3201 70.025 27.3201 Z " fill="#000000" stroke="none" stroke-width="1" stroke-linecap="butt"/></g></g><g data-paper-data="{&quot;origPos&quot;:null}" stroke-linecap="butt"><g data-paper-data="{&quot;origPos&quot;:null}"><path d="M 58.925 3.7201 C 67.225 -4.6799 78.925 14.4201 78.925 32.0201 C 78.925 58.7201 82.025 61.4201 78.525 62.5201 C 76.225 63.2201 74.925 58.4201 74.925 31.7201 C 74.925 5.0201 58.225 5.4201 58.925 3.7201 Z " fill="url(#color-14-,0,0,1,-174.275,-59.32993)" stroke-width="1" stroke="none"/><path d="M 56.925 2.3201 C 65.225 -6.0799 79.525 9.7201 79.525 27.4201 C 79.525 54.1201 80.125 60.1201 76.525 61.2201 C 74.225 61.9201 75.325 55.9201 75.325 29.1201 C 75.325 2.3201 56.125 4.0201 56.925 2.3201 Z " data-paper-data="{&quot;origPos&quot;:null}" fill="url(#color-15-,0,0,1,-174.275,-59.32993)" stroke-width="1" stroke="none"/><path d="M 58.725 5.4201 C 67.025 -2.9799 77.425 14.8201 77.425 32.5201 C 77.425 59.2201 78.125 66.2201 74.625 67.3201 C 72.325 68.0201 74.425 60.6201 74.425 33.9201 C 74.425 7.2201 57.925 7.2201 58.725 5.4201 Z " fill="url(#color-16-,0,0,1,-174.275,-59.32993)" stroke-width="1" stroke="none"/><path d="M 60.625 6.9201 C 65.325 -3.6799 77.525 18.0201 77.525 35.7201 C 77.525 62.4201 71.825 71.6201 69.125 67.2201 C 67.525 64.6201 73.725 62.2201 73.725 35.5201 C 73.725 8.8201 59.825 8.6201 60.625 6.9201 Z " fill="url(#color-17-,0,0,1,-174.275,-59.32993)" stroke-width="1" stroke="none"/></g><g data-paper-data="{&quot;origPos&quot;:null}"><path d="M 41.725 29.0201 C 41.725 55.7201 40.425 60.6201 38.125 59.8201 C 34.625 58.7201 37.725 56.0201 37.725 29.3201 C 37.725 11.6201 44.325 -2.9799 57.725 1.0201 C 58.525 2.8201 41.725 2.3201 41.725 29.0201 Z " fill="url(#color-18-,0,0,1,-174.275,-59.32993)" stroke-width="1" stroke="none"/><path d="M 42.525 34.5201 C 42.525 61.2201 41.225 66.1201 38.925 65.3201 C 35.425 64.2201 38.525 61.5201 38.525 34.8201 C 38.525 17.1201 51.625 -4.3799 60.025 4.0201 C 60.825 5.9201 42.525 7.8201 42.525 34.5201 Z " fill="url(#color-19-,0,0,1,-174.275,-59.32993)" stroke-width="1" stroke="none"/><path d="M 45.125 40.6201 C 46.725 67.3201 43.825 72.2201 41.525 71.4201 C 38.025 70.3201 41.125 67.6201 41.125 40.9201 C 41.125 23.2201 43.825 0.9201 63.025 5.6201 C 64.425 13.6201 42.725 1.0201 45.125 40.6201 Z " fill="url(#color-20-,0,0,1,-174.275,-59.32993)" stroke-width="1" stroke="none"/></g></g><g data-paper-data="{&quot;origPos&quot;:null,&quot;origRot&quot;:0}" stroke-linecap="butt"><path d="M 26.7851 121.7546 L 6.3129 102.9893 C 6.3129 102.9893 8.0786 99.7749 9.2738 97.9333 C 10.8939 95.6127 15.8671 96.2665 15.8671 96.2665 L 32.8707 118.2596 Z " data-paper-data="{&quot;origPos&quot;:null}" stroke-width="1" fill="#764a21" stroke="none"/><path d="M 41.5753 134.1227 C 41.5753 134.1227 35.8285 132.929 32.6498 130.4641 C 29.2814 127.7894 26.3315 120.8304 26.3315 120.8304 L 29.8866 115.9048 C 29.8866 115.9048 37.118 115.4719 41.4036 119.7955 C 43.3044 121.7947 46.2664 126.5515 46.2664 126.5515 C 46.2664 126.5515 46.2238 129.353 45.2302 129.2022 C 44.3416 128.9567 40.6653 124.464 40.1151 125.4373 C 39.4446 126.8049 46.9059 131.6907 45.8461 132.8383 C 44.8761 134.1907 41.5753 134.1227 41.5753 134.1227 Z " data-paper-data="{&quot;origPos&quot;:null}" stroke-width="1" fill="#764a21" stroke="none"/></g></g></g></svg>